<svg xmlns="http://www.w3.org/2000/svg" width="32" height="31" viewBox="0 0 32 31"><g fill="none" fill-rule="evenodd" transform="translate(.5)"><circle cx="15.5" cy="15.5" r="15.5" fill="#0077B5"/><path fill="#FFF" d="M12.966 12.9h-2.698V21h2.698v-8.1zm.171-2.502C13.13 9.605 12.557 9 11.633 9c-.915 0-1.52.605-1.52 1.398 0 .776.58 1.398 1.488 1.398h.016c.94 0 1.529-.622 1.52-1.398zm4.006 3.653v-1.152h-2.69s.033.76 0 8.101h2.69v-4.52c0-.246.024-.483.09-.663.196-.482.637-.98 1.381-.98.973 0 1.365.743 1.365 1.83V21h2.69v-4.643c0-2.485-1.324-3.646-3.098-3.646-1.433 0-2.073.785-2.428 1.34z"/></g></svg>