<svg xmlns="http://www.w3.org/2000/svg" width="31" height="31" viewBox="0 0 31 31"><g fill="none" fill-rule="evenodd"><circle cx="15.5" cy="15.5" r="15.5" fill="#00ACED"/><path fill="#FFF" d="M23.785 10.527a6.273 6.273 0 0 1-1.594 1.66v.399c0 2.324-.836 4.433-2.507 6.325-1.671 1.893-3.89 2.839-6.657 2.839a8.87 8.87 0 0 1-4.914-1.46c.354.043.609.065.764.065 1.483 0 2.81-.464 3.984-1.394a3.232 3.232 0 0 1-1.86-.648 3.042 3.042 0 0 1-1.128-1.577c.265.045.465.067.597.067.222 0 .51-.045.864-.133a3.246 3.246 0 0 1-1.843-1.112 3.06 3.06 0 0 1-.747-2.042v-.034c.487.266.974.399 1.46.399-.951-.62-1.427-1.516-1.427-2.69 0-.553.144-1.084.432-1.593 1.704 2.103 3.906 3.22 6.607 3.353-.044-.155-.066-.398-.066-.73 0-.908.31-1.672.93-2.291.62-.62 1.383-.93 2.29-.93.908 0 1.683.343 2.325 1.03.664-.111 1.35-.377 2.058-.798-.221.775-.697 1.373-1.428 1.793a5.484 5.484 0 0 0 1.86-.498z"/></g></svg>