<?xml version="1.0" standalone="no"?>
<!DOCTYPE svg PUBLIC "-//W3C//DTD SVG 20010904//EN"
 "http://www.w3.org/TR/2001/REC-SVG-20010904/DTD/svg10.dtd">
<svg version="1.0" xmlns="http://www.w3.org/2000/svg"
 width="260.000000pt" height="260.000000pt" viewBox="0 0 260.000000 260.000000"
 preserveAspectRatio="xMidYMid meet">
<metadata>
Created by potrace 1.11, written by Peter Selinger 2001-2013
</metadata>
<g transform="translate(0.000000,260.000000) scale(0.100000,-0.100000)"
fill="#000000" stroke="none">
<path d="M357 2264 c-1 -1 -27 -4 -57 -7 -89 -9 -112 -13 -180 -32 -36 -10
-78 -20 -93 -22 -27 -5 -28 -6 -11 -32 9 -14 24 -34 33 -43 9 -9 27 -33 41
-53 14 -20 34 -47 46 -60 11 -13 40 -51 65 -85 24 -33 47 -60 51 -60 5 0 8 -6
8 -13 0 -7 8 -20 18 -29 20 -19 29 -30 62 -78 13 -19 35 -46 47 -60 13 -14 23
-28 23 -31 0 -4 12 -21 28 -38 46 -52 53 -61 47 -61 -3 0 5 -11 19 -24 15 -13
26 -27 26 -32 0 -5 10 -20 23 -34 12 -14 45 -54 72 -90 28 -36 52 -67 55 -70
3 -3 34 -43 70 -90 35 -47 68 -86 72 -88 4 -2 8 -10 8 -17 0 -7 3 -15 8 -17 4
-1 26 -28 49 -58 23 -30 51 -65 63 -77 11 -13 17 -23 13 -23 -4 0 -3 -4 2 -8
12 -8 50 -55 80 -96 11 -16 25 -33 30 -40 6 -6 35 -44 64 -83 30 -40 58 -73
62 -73 5 0 9 -5 9 -11 0 -6 18 -33 40 -59 22 -26 40 -53 40 -59 0 -7 4 -9 10
-6 5 3 10 0 10 -8 0 -22 111 -117 145 -123 6 -1 26 -9 46 -18 20 -8 39 -12 43
-9 3 4 6 1 6 -6 0 -8 7 -11 15 -7 8 3 15 0 15 -7 0 -8 4 -6 10 3 5 8 10 10 10
4 0 -11 141 -11 200 0 56 11 154 37 165 44 5 4 15 7 20 7 21 2 182 81 206 101
8 8 19 14 23 14 9 0 124 89 166 127 14 13 28 23 32 23 5 0 8 4 8 9 0 5 17 26
38 48 90 94 120 132 131 166 15 43 8 147 -11 158 -7 5 -10 9 -5 9 11 0 -27 72
-58 108 -14 16 -25 33 -25 36 0 3 -8 14 -17 24 -29 30 -63 72 -63 77 0 5 -25
37 -47 60 -7 8 -13 18 -13 24 0 6 -3 11 -8 11 -4 0 -32 33 -62 72 -30 40 -60
80 -67 88 -49 61 -111 141 -128 164 -11 15 -29 38 -40 50 -31 36 -48 58 -75
96 -13 19 -30 41 -38 49 -7 8 -21 26 -30 40 -9 14 -25 32 -34 39 -10 7 -18 17
-18 23 0 5 -8 17 -17 28 -10 10 -30 33 -45 52 -14 19 -35 45 -45 57 l-19 24
-42 -22 c-23 -12 -42 -26 -42 -31 0 -5 -5 -9 -10 -9 -9 0 -66 -54 -95 -92 -36
-46 -82 -147 -77 -170 4 -15 -20 -3 -53 27 -41 38 -58 52 -117 94 -27 19 -48
39 -48 44 0 6 -3 7 -7 4 -3 -4 -20 3 -37 16 -51 38 -123 77 -130 70 -3 -3 -6
-1 -6 5 0 6 -16 16 -35 23 -19 7 -35 17 -35 22 0 4 -4 6 -9 2 -5 -3 -12 -1
-16 5 -4 6 -10 8 -15 5 -5 -3 -11 -1 -15 5 -3 5 -25 15 -48 22 -52 14 -49 14
-67 21 -24 9 -83 26 -110 31 -14 3 -36 7 -50 10 -55 13 -294 28 -303 20z"/>
</g>
</svg>
