<svg xmlns="http://www.w3.org/2000/svg" width="45" height="33" viewBox="0 0 45 33"><g fill="none"><path fill="#F46F34" d="M4.322 13.489l12.054 15.428a2.006 2.006 0 0 0 2.809.346l1.772-1.385a2.006 2.006 0 0 0 .344-2.809L9.247 9.641a2.006 2.006 0 0 0-2.808-.345L4.666 10.68a2.006 2.006 0 0 0-.344 2.808zm-2.364 1.847a5.006 5.006 0 0 1 .861-7.02l1.773-1.384a5.006 5.006 0 0 1 7.02.862l12.053 15.428a5.006 5.006 0 0 1-.86 7.02l-1.774 1.385a5.006 5.006 0 0 1-7.019-.863L1.958 15.336z"/><path fill="#3FA9F5" d="M36.202 3.783l-20.96 20.96a2.004 2.004 0 0 0 0 2.829l1.591 1.59c.778.778 2.05.779 2.829 0l20.96-20.96c.779-.779.78-2.05 0-2.829l-1.59-1.59a2.006 2.006 0 0 0-2.83 0zm-2.121-2.121a5.006 5.006 0 0 1 7.072 0l1.59 1.59a5.004 5.004 0 0 1 0 7.072l-20.96 20.96a5.006 5.006 0 0 1-7.071 0l-1.591-1.591a5.004 5.004 0 0 1 0-7.072l20.96-20.96z"/></g></svg>