<svg xmlns="http://www.w3.org/2000/svg" width="29" height="40" viewBox="0 0 29 40"><g fill="none"><path fill="#3FA9F5" d="M3 5.005v29.99A2 2 0 0 0 5.002 37h18.996A2.004 2.004 0 0 0 26 34.995V5.005A2 2 0 0 0 23.998 3H5.002A2.004 2.004 0 0 0 3 5.005zm-3 0A5.004 5.004 0 0 1 5.002 0h18.996A5 5 0 0 1 29 5.005v29.99A5.004 5.004 0 0 1 23.998 40H5.002A5 5 0 0 1 0 34.995V5.005z"/><path fill="#F46F34" d="M3 35.005C3 36.107 3.894 37 5.002 37h18.996A1.998 1.998 0 0 0 26 35.005V29H3v6.005zM0 26h29v9.005A4.998 4.998 0 0 1 23.998 40H5.002A4.997 4.997 0 0 1 0 35.005V26z"/></g></svg>