<svg width="50" height="56" viewBox="0 0 50 56" xmlns="http://www.w3.org/2000/svg"><title>B670F267-B2E6-4478-A3D7-EC259DCFFD75</title><g fill="none" fill-rule="evenodd"><path d="M23.084 55.454L2.24 43.608a4.078 4.078 0 0 1-2.067-3.525L.053 16.186a4.078 4.078 0 0 1 2.032-3.545L22.811.59a4.116 4.116 0 0 1 4.1-.02l20.845 11.846a4.078 4.078 0 0 1 2.067 3.525l.12 23.897a4.08 4.08 0 0 1-2.033 3.545l-20.726 12.05a4.115 4.115 0 0 1-4.1.021" fill="#3FA9F5"/><path d="M24.905 25.405s-.334-3.226 2.819-4.817c0 0 7.566 9.816 8.03 10.505.725 1.077.96 2.704-.287 3.365-1.246.66-2.706.964-4.068-.442-1.363-1.406-6.494-8.61-6.494-8.61" fill="#1578BF"/><path d="M25.494 24.483s5.27 7.381 6.549 8.72c1.565 1.638 3.912.744 3.912.744s-2.164 3.447-6.313 4.705c-4.148 1.258-5.814-1.064-5.814-1.064L10.75 20.313c8.58-3.038 14.743 4.17 14.743 4.17" fill="#FFF"/></g></svg>