<svg xmlns="http://www.w3.org/2000/svg" width="38" height="39" viewBox="0 0 38 39">
    <g fill="none" fill-rule="nonzero">
        <path fill="#3FA9F5" d="M3.804 9.96l24.735 24.736c.79.79 2.05.792 2.832.01l2.835-2.835a2 2 0 0 0-.01-2.832L9.461 4.304a1.995 1.995 0 0 0-2.832-.01L3.794 7.129a2 2 0 0 0 .01 2.832zm-2.121 2.122a5 5 0 0 1-.01-7.074l2.835-2.836a4.995 4.995 0 0 1 7.074.01l24.735 24.736a5 5 0 0 1 .01 7.074l-2.835 2.836a4.995 4.995 0 0 1-7.074-.01L1.683 12.081z"/>
        <path fill="#F46F34" d="M8.04 14.197l5.657-5.657L9.45 4.294a1.993 1.993 0 0 0-2.822 0L3.794 7.129c-.78.78-.78 2.042 0 2.822l4.246 4.246zm-6.368-2.125a4.993 4.993 0 0 1 0-7.064l2.836-2.836a4.993 4.993 0 0 1 7.064 0l6.367 6.368-9.9 9.9-6.367-6.368z"/>
    </g>
</svg>
