<svg xmlns="http://www.w3.org/2000/svg" width="55" height="47" viewBox="0 0 55 47">
    <g fill="none" fill-rule="nonzero">
        <path fill="#F46F34" d="M3 5v22c0 1.104.897 2 2.007 2h30.986A1.998 1.998 0 0 0 38 27V5c0-1.104-.897-2-2.007-2H5.007A1.998 1.998 0 0 0 3 5zM0 5c0-2.761 2.233-5 5.007-5h30.986A5.003 5.003 0 0 1 41 5v22c0 2.761-2.233 5-5.007 5H5.007A5.003 5.003 0 0 1 0 27V5z"/>
        <path fill="#3FA9F5" d="M17 20v22c0 1.104.897 2 2.007 2h30.986A1.998 1.998 0 0 0 52 42V20c0-1.104-.897-2-2.007-2H19.007A1.998 1.998 0 0 0 17 20zm-3 0c0-2.761 2.233-5 5.007-5h30.986A5.003 5.003 0 0 1 55 20v22c0 2.761-2.233 5-5.007 5H19.007A5.003 5.003 0 0 1 14 42V20z"/>
    </g>
</svg>
